<svg width="118" height="193" viewBox="0 0 118 193" fill="none" xmlns="http://www.w3.org/2000/svg">
<path fill-rule="evenodd" clip-rule="evenodd" d="M56.4712 164.068V172.727C56.4712 179.173 51.246 184.398 44.8004 184.398H36.1415C29.696 184.398 24.4708 179.173 24.4708 172.727V151.268H17.1296C11.8276 151.268 7.52948 146.97 7.52948 141.668V101.385C7.52948 96.0831 11.8276 91.785 17.1296 91.785H24.9783C27.9415 73.8442 43.5261 60.1611 62.3065 60.1611C81.3801 60.1611 97.1573 74.2748 99.7642 92.6283C105.639 96.6408 109.5 103.386 109.515 111.039C109.521 113.888 108.993 116.615 108.026 119.123C106.44 123.235 103.674 126.761 100.142 129.285V132.821V150.515C100.142 154.344 98.5543 157.802 96.001 160.267V173.103C96.001 179.549 90.7758 184.774 84.3303 184.774H75.6714C69.2258 184.774 64.0006 179.549 64.0006 173.103V164.068H56.4712Z" fill="#93DA5C"/>
<path fill-rule="evenodd" clip-rule="evenodd" d="M56.4712 164.068V172.727C56.4712 179.173 51.246 184.398 44.8004 184.398H36.1415C29.696 184.398 24.4708 179.173 24.4708 172.727V151.268H17.1296C11.8276 151.268 7.52948 146.97 7.52948 141.668V101.385C7.52948 96.0831 11.8276 91.785 17.1296 91.785H24.9783C27.9415 73.8442 43.5261 60.1611 62.3065 60.1611C81.3801 60.1611 97.1573 74.2748 99.7642 92.6283C105.639 96.6408 109.5 103.386 109.515 111.039C109.521 113.888 108.993 116.615 108.026 119.123C106.44 123.235 103.674 126.761 100.142 129.285V132.821V150.515C100.142 154.344 98.5543 157.802 96.001 160.267V173.103C96.001 179.549 90.7758 184.774 84.3303 184.774H75.6714C69.2258 184.774 64.0006 179.549 64.0006 173.103V164.068H56.4712Z" fill="#93DA5C"/>
<path fill-rule="evenodd" clip-rule="evenodd" d="M24.4708 97.9967C24.4708 95.8811 24.6445 93.806 24.9783 91.7849H17.1296C11.8276 91.7849 7.52948 96.083 7.52948 101.385V141.668C7.52948 146.97 11.8276 151.268 17.1296 151.268H24.4708V172.727C24.4708 179.172 29.696 184.398 36.1415 184.398H44.8004C51.246 184.398 56.4712 179.172 56.4712 172.727V164.068H55.7182C45.194 164.068 35.8851 158.865 30.2231 150.891C28.8235 148.92 27.6468 146.78 26.7297 144.507C25.2728 140.897 24.4708 136.953 24.4708 132.821V97.9967ZM68.8948 164.068H64.0006V173.103C64.0006 179.549 69.2258 184.774 75.6714 184.774H84.3303C90.7758 184.774 96.001 179.549 96.001 173.103V160.267C98.5543 157.802 100.142 154.344 100.142 150.515V132.821C100.142 139.72 97.9058 146.098 94.1184 151.268C88.433 159.029 79.2524 164.068 68.8948 164.068Z" fill="black" fill-opacity="0.25" style="mix-blend-mode:multiply"/>
<path d="M33.928 111.229C33.903 98.8878 43.8869 88.8584 56.2278 88.8275L87.1249 88.7499C99.4658 88.719 109.49 98.6981 109.515 111.039C109.54 123.38 99.5563 133.409 87.2155 133.44L56.3183 133.518C43.9775 133.549 33.953 123.57 33.928 111.229Z" fill="#B4E2F5"/>
<path d="M57.9845 94.6691C57.9803 93.1057 59.2444 91.8359 60.8077 91.8329L82.9446 91.7902C84.508 91.7872 85.7787 93.0522 85.7828 94.6155C85.787 96.1789 84.5229 97.4487 82.9596 97.4517L60.8227 97.4944C59.2593 97.4974 57.9886 96.2325 57.9845 94.6691Z" fill="white"/>
<path fill-rule="evenodd" clip-rule="evenodd" d="M42.1858 93.833C41.2237 96.3356 40.6988 99.0545 40.7046 101.896C40.7296 114.237 50.7541 124.216 63.095 124.185L93.9921 124.108C99.3163 124.094 104.202 122.22 108.034 119.102C104.818 127.468 96.7149 133.416 87.2155 133.44L56.3184 133.517C43.9776 133.548 33.953 123.569 33.928 111.228C33.9138 104.212 37.1352 97.9423 42.1858 93.833Z" fill="black" fill-opacity="0.5" style="mix-blend-mode:multiply"/>
<path fill-rule="evenodd" clip-rule="evenodd" d="M60.0964 184.334C56.5897 188.948 51.043 191.927 44.8005 191.927H36.1415C25.5376 191.927 16.9413 183.331 16.9413 172.727V158.796C7.56766 158.695 0 151.065 0 141.668V101.385C0 91.9246 7.66918 84.2554 17.1296 84.2554H19.0619C24.8849 65.9174 42.0382 52.6316 62.3065 52.6316C84.089 52.6316 102.276 67.9773 106.664 88.4494C112.995 93.9042 117.026 101.99 117.045 111.024C117.052 114.819 116.348 118.469 115.051 121.832C113.428 126.041 110.885 129.783 107.672 132.817V150.515C107.672 155.214 106.128 159.561 103.53 163.064V173.103C103.53 183.707 94.9342 192.304 84.3303 192.304H75.6714C69.2606 192.304 63.5837 189.162 60.0964 184.334ZM96.001 160.267C98.5543 157.802 100.142 154.344 100.142 150.515V129.285C103.674 126.761 106.44 123.235 108.026 119.123C108.993 116.615 109.521 113.888 109.515 111.039C109.5 103.386 105.639 96.6407 99.7643 92.6283C97.1573 74.2747 81.3801 60.1611 62.3065 60.1611C43.5261 60.1611 27.9416 73.8442 24.9783 91.7849H17.1296C11.8276 91.7849 7.52949 96.083 7.52949 101.385V141.668C7.52949 146.97 11.8276 151.268 17.1296 151.268H24.4708V172.727C24.4708 179.172 29.696 184.398 36.1415 184.398H44.8005C51.246 184.398 56.4712 179.172 56.4712 172.727V164.068H64.0007V173.103C64.0007 179.549 69.2258 184.774 75.6714 184.774H84.3303C90.7758 184.774 96.001 179.549 96.001 173.103V160.267Z" fill="black"/>
<path fill-rule="evenodd" clip-rule="evenodd" d="M71.1226 6.52832C76.0902 11.6966 78.352 20.0244 76.3898 28.493C74.8953 34.9428 71.2482 40.1903 66.6324 43.3535V52.9514H55.6189V45.9053C51.0368 45.7757 46.1743 44.316 41.7007 41.4461C33.9897 36.4993 29.45 28.6557 29.22 21.2547C35.8144 18.2317 44.681 18.9886 52.3921 23.9354C53.7809 24.8264 55.0669 25.8114 56.2433 26.8708C56.3596 25.8264 56.5384 24.774 56.7828 23.7194C58.745 15.2508 64.4183 8.85497 71.1226 6.52832Z" fill="#197031"/>
<path fill-rule="evenodd" clip-rule="evenodd" d="M68.4579 0.398129C71.1433 -0.527604 74.1121 0.190365 76.1019 2.24674C82.9306 9.30391 85.6343 20.1342 83.1857 30.6314C81.6626 37.1609 78.3257 42.8437 73.8355 46.9868V52.6704C73.8355 56.8316 70.5226 60.2049 66.4359 60.2049H55.6559C51.5692 60.2049 48.2563 56.8316 48.2563 52.6704V52.3181C44.7749 51.4154 41.3387 49.9303 38.1072 47.871C28.8114 41.9472 22.7366 32.1828 22.4209 22.0926C22.3252 19.0357 24.0539 16.2233 26.7959 14.9747C34.4493 11.4896 43.6969 11.8776 51.9907 15.6623C55.445 8.42463 61.3514 2.84793 68.4579 0.398129ZM58.4196 19.4385C57.7395 20.9453 57.1904 22.5545 56.7951 24.249C56.5559 25.2744 56.3809 26.2976 56.2671 27.3131C55.1156 26.283 53.8569 25.3254 52.4975 24.4591C51.5243 23.8389 50.5323 23.2865 49.5287 22.8009C42.7489 19.5207 35.4391 19.2925 29.8168 21.8527C30.042 29.0485 34.4854 36.6746 42.0329 41.4842C46.4116 44.2746 51.171 45.6938 55.6559 45.8197V52.6704H66.4359V43.3387C70.9537 40.2632 74.5235 35.1613 75.9863 28.8903C77.9069 20.6565 75.6931 12.5597 70.8308 7.53471C65.6192 9.33129 61.0441 13.6233 58.4196 19.4385Z" fill="black"/>
</svg>
