<svg width="111" height="129" viewBox="0 0 111 129" fill="none" xmlns="http://www.w3.org/2000/svg">
<path fill-rule="evenodd" clip-rule="evenodd" d="M64.2325 37.2585C85.7745 37.2585 103.238 42.819 103.238 49.6781V67.5313V85.7725C103.238 89.72 101.601 93.2851 98.9685 95.8261L98.9685 109.059C98.9685 115.704 93.5818 121.091 86.937 121.091H78.0105C71.3657 121.091 65.979 115.704 65.979 109.059V99.7446H58.2167V108.671C58.2167 115.316 52.8301 120.703 46.1853 120.703H37.2587C30.6139 120.703 25.2272 115.316 25.2272 108.671L25.2272 86.5488H17.6591C12.1932 86.5488 7.76221 82.1178 7.76221 76.6519V57.0522C7.76221 51.4792 12.2801 46.9613 17.8531 46.9613H26.1633C30.0546 41.4089 45.6213 37.2585 64.2325 37.2585Z" fill="#DF3434"/>
<path d="M98.9685 49.6784C98.9685 55.0371 83.4167 59.3812 64.2325 59.3812C45.0484 59.3812 29.4965 55.0371 29.4965 49.6784C29.4965 44.3197 45.0484 39.9756 64.2325 39.9756C83.4167 39.9756 98.9685 44.3197 98.9685 49.6784Z" fill="black" fill-opacity="0.6" style="mix-blend-mode:multiply"/>
<path fill-rule="evenodd" clip-rule="evenodd" d="M63.4563 11.2707C62.0265 9.15394 59.605 7.76221 56.8584 7.76221C52.4642 7.76221 48.9021 11.3244 48.9021 15.7185C48.9021 20.1126 52.4642 23.6748 56.8584 23.6748C56.9232 23.6748 56.9879 23.674 57.0524 23.6725V47.3496C57.0524 49.0644 59.9195 50.4545 63.4563 50.4545C66.993 50.4545 69.8601 49.0644 69.8601 47.3496V23.6725C69.9246 23.674 69.9893 23.6748 70.0542 23.6748C74.4483 23.6748 78.0105 20.1126 78.0105 15.7185C78.0105 11.3244 74.4483 7.76221 70.0542 7.76221C67.3076 7.76221 64.886 9.15394 63.4563 11.2707Z" fill="#F3F3F3"/>
<path fill-rule="evenodd" clip-rule="evenodd" d="M68.3936 7.93579C66.3461 8.37053 64.5896 9.59286 63.4563 11.2707C62.323 9.59285 60.5665 8.37052 58.5189 7.93578C57.9834 7.82206 57.4279 7.76224 56.8584 7.76224C52.4643 7.76224 48.9021 11.3244 48.9021 15.7185C48.9021 20.0478 52.3599 23.5695 56.6643 23.6725C56.7288 23.674 56.7935 23.6748 56.8584 23.6748C56.9233 23.6748 56.9879 23.674 57.0524 23.6725V37.4687C41.721 38.3771 29.5418 42.1408 26.1633 46.9615H17.8531C12.2801 46.9615 7.76224 51.4794 7.76224 57.0524V76.6521C7.76224 82.118 12.1932 86.5489 17.6591 86.5489H25.2273V108.671C25.2273 115.316 30.6139 120.703 37.2587 120.703H46.1853C52.8301 120.703 58.2168 115.316 58.2168 108.671V99.7448H65.979V109.059C65.979 115.704 71.3657 121.091 78.0105 121.091H86.9371C93.5819 121.091 98.9685 115.704 98.9685 109.059L98.9685 95.8263C101.601 93.2853 103.238 89.7202 103.238 85.7727V49.6783C103.238 43.4277 88.7356 38.2555 69.8601 37.3871V23.6725C69.9246 23.674 69.9893 23.6748 70.0542 23.6748C70.1191 23.6748 70.1837 23.674 70.2482 23.6725C74.5527 23.5695 78.0105 20.0478 78.0105 15.7185C78.0105 11.3244 74.4483 7.76224 70.0542 7.76224C69.4847 7.76224 68.9292 7.82207 68.3936 7.93579ZM77.6224 29.4985C82.4807 26.8245 85.7727 21.656 85.7727 15.7185C85.7727 7.03743 78.7353 0 70.0542 0C67.6968 0 65.4614 0.520212 63.4563 1.44918C61.4512 0.520213 59.2158 0 56.8584 0C48.1773 0 41.1399 7.03743 41.1399 15.7185C41.1399 21.656 44.4319 26.8245 49.2902 29.4985V30.3779C43.977 31.0286 39.0734 32.0268 34.842 33.3292C31.7876 34.2694 28.923 35.4169 26.4516 36.808C25.2623 37.4775 24.0507 38.2663 22.9162 39.1993H17.8531C7.99313 39.1993 0 47.1924 0 57.0524V76.6521C0 86.3402 7.80158 94.2061 17.465 94.3101V108.671C17.465 119.603 26.327 128.465 37.2587 128.465H46.1853C52.6208 128.465 58.339 125.394 61.9541 120.637C65.5492 125.614 71.4016 128.853 78.0105 128.853H86.9371C97.8688 128.853 106.731 119.991 106.731 109.059V98.71C109.409 95.098 111 90.617 111 85.7727V49.6783C111 44.8749 108.196 41.4024 105.643 39.2775C103.039 37.1091 99.722 35.4749 96.287 34.2221C91.1066 32.3326 84.6839 30.9628 77.6224 30.1989V29.4985Z" fill="black"/>
<path fill-rule="evenodd" clip-rule="evenodd" d="M103.238 67.5314C103.238 74.6445 100.932 81.2191 97.0277 86.5488C91.1666 94.5495 81.7022 99.7446 71.0244 99.7446H65.979V109.059C65.979 115.704 71.3657 121.091 78.0105 121.091H86.937C93.5818 121.091 98.9685 115.704 98.9685 109.059L98.9685 95.8261C101.601 93.2852 103.238 89.7201 103.238 85.7726V67.5314ZM26.1633 46.9614C25.5505 47.8358 25.2272 48.745 25.2272 49.6782V67.5314C25.2272 85.3223 39.6496 99.7446 57.4405 99.7446H58.2167V108.671C58.2167 115.316 52.8301 120.703 46.1853 120.703H37.2587C30.6139 120.703 25.2272 115.316 25.2272 108.671L25.2272 86.5488H17.6591C12.1932 86.5488 7.76221 82.1179 7.76221 76.652V57.0523C7.76221 51.4793 12.2801 46.9614 17.8531 46.9614H26.1633Z" fill="black" fill-opacity="0.25" style="mix-blend-mode:multiply"/>
</svg>
