<svg width="129" height="206" viewBox="0 0 129 206" fill="none" xmlns="http://www.w3.org/2000/svg">
<g filter="url(#filter0_d_235_19)">
<path fill-rule="evenodd" clip-rule="evenodd" d="M61.9395 168.334V177.218C61.9395 183.831 56.5785 189.192 49.9653 189.192H41.0813C34.4681 189.192 29.1071 183.831 29.1071 177.218L29.1071 155.201H21.575C16.1351 155.201 11.7253 150.791 11.7253 145.351V104.021C11.7253 98.5813 16.1351 94.1714 21.575 94.1714H29.6278C32.6681 75.7642 48.6578 61.7253 67.9265 61.7253C87.4961 61.7253 103.683 76.206 106.358 95.0367C112.385 99.1535 116.347 106.074 116.363 113.926C116.369 116.849 115.827 119.647 114.835 122.22C113.208 126.439 110.37 130.057 106.746 132.647V136.274V154.428C106.746 158.357 105.117 161.905 102.497 164.434V177.604C102.497 184.217 97.1361 189.578 90.5229 189.578H81.6389C75.0257 189.578 69.6647 184.217 69.6647 177.604V168.334H61.9395Z" fill="#E3E3E3"/>
<path fill-rule="evenodd" clip-rule="evenodd" d="M61.9395 168.334V177.218C61.9395 183.831 56.5785 189.192 49.9653 189.192H41.0813C34.4681 189.192 29.1071 183.831 29.1071 177.218L29.1071 155.201H21.575C16.1351 155.201 11.7253 150.791 11.7253 145.351V104.021C11.7253 98.5813 16.1351 94.1714 21.575 94.1714H29.6278C32.6681 75.7642 48.6578 61.7253 67.9265 61.7253C87.4961 61.7253 103.683 76.206 106.358 95.0367C112.385 99.1535 116.347 106.074 116.363 113.926C116.369 116.849 115.827 119.647 114.835 122.22C113.208 126.439 110.37 130.057 106.746 132.647V136.274V154.428C106.746 158.357 105.117 161.905 102.497 164.434V177.604C102.497 184.217 97.1361 189.578 90.5229 189.578H81.6389C75.0257 189.578 69.6647 184.217 69.6647 177.604V168.334H61.9395Z" fill="#E3E3E3"/>
<path fill-rule="evenodd" clip-rule="evenodd" d="M29.1071 100.545C29.1071 98.3741 29.2853 96.245 29.6278 94.1714H21.575C16.1351 94.1714 11.7253 98.5812 11.7253 104.021V145.351C11.7253 150.791 16.1351 155.201 21.575 155.201H29.1071L29.1071 177.218C29.1071 183.831 34.4681 189.192 41.0813 189.192H49.9653C56.5785 189.192 61.9395 183.831 61.9395 177.218V168.334H61.1669C50.3692 168.334 40.8181 162.996 35.0089 154.815C33.573 152.792 32.3657 150.597 31.4247 148.265C29.93 144.561 29.1071 140.513 29.1071 136.274V100.545ZM74.6861 168.334H69.6647V177.604C69.6647 184.217 75.0257 189.578 81.6389 189.578H90.5229C97.1361 189.578 102.497 184.217 102.497 177.604V164.434C105.117 161.905 106.746 158.357 106.746 154.428V136.274C106.746 143.353 104.451 149.897 100.566 155.201C94.7323 163.163 85.313 168.334 74.6861 168.334Z" fill="black" fill-opacity="0.25" style="mix-blend-mode:multiply"/>
<path d="M38.8101 114.121C38.7845 101.459 49.028 91.1688 61.6898 91.137L93.3902 91.0575C106.052 91.0257 116.337 101.264 116.363 113.926C116.388 126.588 106.145 136.878 93.4831 136.91L61.7827 136.989C49.1209 137.021 38.8358 126.782 38.8101 114.121Z" fill="#B4E2F5"/>
<path d="M63.4921 97.1307C63.4879 95.5266 64.7848 94.2238 66.3888 94.2207L89.1013 94.1769C90.7053 94.1738 92.009 95.4717 92.0133 97.0757C92.0175 98.6797 90.7206 99.9825 89.1166 99.9856L66.4041 100.029C64.8001 100.032 63.4963 98.7347 63.4921 97.1307Z" fill="white"/>
<path fill-rule="evenodd" clip-rule="evenodd" d="M47.2826 96.2727C46.2955 98.8403 45.757 101.63 45.7629 104.545C45.7886 117.207 56.0737 127.446 68.7355 127.414L100.436 127.334C105.899 127.321 110.911 125.398 114.843 122.198C111.543 130.782 103.23 136.885 93.4832 136.909L61.7827 136.989C49.121 137.021 38.8358 126.782 38.8102 114.12C38.7956 106.921 42.1007 100.489 47.2826 96.2727Z" fill="black" fill-opacity="0.5" style="mix-blend-mode:multiply"/>
<path fill-rule="evenodd" clip-rule="evenodd" d="M65.659 189.127C62.0611 193.861 56.3701 196.917 49.9653 196.917H41.0812C30.2016 196.917 21.3818 188.098 21.3818 177.218L21.3818 162.925C11.7644 162.822 4 154.993 4 145.351V104.021C4 94.3147 11.8686 86.4461 21.575 86.4461H23.5575C29.5319 67.6313 47.1313 54 67.9265 54C90.2754 54 108.935 69.7447 113.437 90.7491C119.933 96.3457 124.069 104.641 124.088 113.91C124.096 117.805 123.373 121.549 122.043 125C120.377 129.318 117.768 133.158 114.471 136.271V154.428C114.471 159.25 112.888 163.709 110.222 167.304V177.604C110.222 188.484 101.403 197.304 90.5229 197.304H81.6389C75.0614 197.304 69.2369 194.08 65.659 189.127ZM102.497 164.434C105.117 161.905 106.746 158.357 106.746 154.428V132.647C110.37 130.057 113.208 126.439 114.835 122.22C115.827 119.647 116.369 116.849 116.363 113.926C116.347 106.074 112.385 99.1534 106.358 95.0366C103.683 76.2059 87.496 61.7253 67.9265 61.7253C48.6578 61.7253 32.6681 75.7641 29.6278 94.1713H21.575C16.1351 94.1713 11.7253 98.5812 11.7253 104.021V145.351C11.7253 150.791 16.1351 155.201 21.575 155.201H29.1071V177.218C29.1071 183.831 34.4681 189.192 41.0812 189.192H49.9653C56.5784 189.192 61.9394 183.831 61.9394 177.218V168.334H69.6647V177.604C69.6647 184.217 75.0257 189.578 81.6389 189.578H90.5229C97.136 189.578 102.497 184.217 102.497 177.604L102.497 164.434Z" fill="black"/>
<path fill-rule="evenodd" clip-rule="evenodd" d="M76.9718 6.698C82.0686 12.0007 84.3892 20.5449 82.3759 29.2338C80.8426 35.8513 77.1006 41.2352 72.3649 44.4806V54.3281H61.065V47.0988C56.3638 46.9659 51.3748 45.4682 46.7849 42.5237C38.8735 37.4482 34.2157 29.4007 33.9797 21.8072C40.7456 18.7056 49.8427 19.4822 57.7542 24.5577C59.1792 25.4719 60.4986 26.4824 61.7056 27.5694C61.8249 26.4978 62.0084 25.418 62.2591 24.336C64.2724 15.6472 70.0932 9.08514 76.9718 6.698Z" fill="#197031"/>
<path fill-rule="evenodd" clip-rule="evenodd" d="M74.2379 0.408481C76.9931 -0.541322 80.0391 0.195315 82.0806 2.30516C89.0868 9.54582 91.8609 20.6577 89.3486 31.4278C87.7859 38.1271 84.3622 43.9576 79.7553 48.2085V54.0399C79.7553 58.3092 76.3563 61.7703 72.1633 61.7703H61.103C56.9101 61.7703 53.511 58.3092 53.511 54.0399V53.6784C49.9391 52.7523 46.4135 51.2285 43.0981 49.1157C33.5606 43.0379 27.3278 33.0196 27.0039 22.667C26.9057 19.5307 28.6794 16.6451 31.4926 15.364C39.345 11.7884 48.8331 12.1865 57.3426 16.0695C60.8866 8.64367 66.9466 2.92198 74.2379 0.408481ZM63.9386 19.9439C63.2408 21.4899 62.6774 23.1409 62.2718 24.8795C62.0264 25.9315 61.8468 26.9814 61.7301 28.0232C60.5486 26.9664 59.2572 25.9839 57.8625 25.0951C56.864 24.4588 55.8462 23.892 54.8165 23.3938C47.8604 20.0283 40.3606 19.7941 34.5921 22.4209C34.8231 29.8037 39.3821 37.6281 47.1258 42.5628C51.6183 45.4257 56.5015 46.8818 61.103 47.011V54.0399H72.1633V44.4655C76.7986 41.3101 80.4612 36.0755 81.962 29.6415C83.9326 21.1936 81.6612 12.8863 76.6725 7.73061C71.3254 9.5739 66.6313 13.9775 63.9386 19.9439Z" fill="black"/>
</g>
<defs>
<filter id="filter0_d_235_19" x="0" y="0" width="128.088" height="205.303" filterUnits="userSpaceOnUse" color-interpolation-filters="sRGB">
<feFlood flood-opacity="0" result="BackgroundImageFix"/>
<feColorMatrix in="SourceAlpha" type="matrix" values="0 0 0 0 0 0 0 0 0 0 0 0 0 0 0 0 0 0 127 0" result="hardAlpha"/>
<feOffset dy="4"/>
<feGaussianBlur stdDeviation="2"/>
<feComposite in2="hardAlpha" operator="out"/>
<feColorMatrix type="matrix" values="0 0 0 0 0 0 0 0 0 0 0 0 0 0 0 0 0 0 0.25 0"/>
<feBlend mode="normal" in2="BackgroundImageFix" result="effect1_dropShadow_235_19"/>
<feBlend mode="normal" in="SourceGraphic" in2="effect1_dropShadow_235_19" result="shape"/>
</filter>
</defs>
</svg>
