<svg width="152" height="159" viewBox="0 0 152 159" fill="none" xmlns="http://www.w3.org/2000/svg">
<g filter="url(#filter0_d_235_54)">
<path fill-rule="evenodd" clip-rule="evenodd" d="M84.9395 114.334V123.218C84.9395 129.831 79.5785 135.192 72.9653 135.192H64.0813C57.4681 135.192 52.1071 129.831 52.1071 123.218L52.1071 101.201H44.575C39.1351 101.201 34.7253 96.7911 34.7253 91.3513V50.0211C34.7253 44.5813 39.1351 40.1714 44.575 40.1714H52.6278C55.6681 21.7642 71.6578 7.72534 90.9265 7.72534C110.496 7.72534 126.683 22.206 129.358 41.0367C135.385 45.1535 139.347 52.0737 139.363 59.9259C139.369 62.8495 138.827 65.6466 137.835 68.2202C136.208 72.4388 133.37 76.0568 129.746 78.6467V82.2741V100.428C129.746 104.357 128.117 107.905 125.497 110.434V123.604C125.497 130.217 120.136 135.578 113.523 135.578H104.639C98.0257 135.578 92.6647 130.217 92.6647 123.604V114.334H84.9395Z" fill="#10BFD4"/>
<path fill-rule="evenodd" clip-rule="evenodd" d="M84.9395 114.334V123.218C84.9395 129.831 79.5785 135.192 72.9653 135.192H64.0813C57.4681 135.192 52.1071 129.831 52.1071 123.218L52.1071 101.201H44.575C39.1351 101.201 34.7253 96.7911 34.7253 91.3513V50.0211C34.7253 44.5813 39.1351 40.1714 44.575 40.1714H52.6278C55.6681 21.7642 71.6578 7.72534 90.9265 7.72534C110.496 7.72534 126.683 22.206 129.358 41.0367C135.385 45.1535 139.347 52.0737 139.363 59.9259C139.369 62.8495 138.827 65.6466 137.835 68.2202C136.208 72.4388 133.37 76.0568 129.746 78.6467V82.2741V100.428C129.746 104.357 128.117 107.905 125.497 110.434V123.604C125.497 130.217 120.136 135.578 113.523 135.578H104.639C98.0257 135.578 92.6647 130.217 92.6647 123.604V114.334H84.9395Z" fill="#10BFD4"/>
<path fill-rule="evenodd" clip-rule="evenodd" d="M52.1071 46.5447C52.1071 44.3741 52.2853 42.245 52.6278 40.1714H44.575C39.1351 40.1714 34.7253 44.5812 34.7253 50.0211V91.3512C34.7253 96.7911 39.1351 101.201 44.575 101.201H52.1071L52.1071 123.218C52.1071 129.831 57.4681 135.192 64.0813 135.192H72.9653C79.5785 135.192 84.9395 129.831 84.9395 123.218V114.334H84.1669C73.3692 114.334 63.8181 108.996 58.0089 100.815C56.573 98.7925 55.3657 96.5966 54.4247 94.2647C52.93 90.5607 52.1071 86.5135 52.1071 82.2741V46.5447ZM97.6861 114.334H92.6647V123.604C92.6647 130.217 98.0257 135.578 104.639 135.578H113.523C120.136 135.578 125.497 130.217 125.497 123.604V110.434C128.117 107.905 129.746 104.357 129.746 100.428V82.2741C129.746 89.3533 127.451 95.8966 123.566 101.201C117.732 109.163 108.313 114.334 97.6861 114.334Z" fill="black" fill-opacity="0.25" style="mix-blend-mode:multiply"/>
<path d="M61.8101 60.1207C61.7845 47.459 72.028 37.1688 84.6898 37.137L116.39 37.0575C129.052 37.0257 139.337 47.2643 139.363 59.9261C139.388 72.5878 129.145 82.878 116.483 82.9097L84.7827 82.9893C72.1209 83.0211 61.8358 72.7824 61.8101 60.1207Z" fill="#B4E2F5"/>
<path d="M86.4922 43.1307C86.4879 41.5266 87.7848 40.2238 89.3888 40.2207L112.101 40.1769C113.705 40.1738 115.009 41.4717 115.013 43.0757C115.018 44.6797 113.721 45.9825 112.117 45.9856L89.4042 46.0294C87.8001 46.0325 86.4964 44.7347 86.4922 43.1307Z" fill="white"/>
<path fill-rule="evenodd" clip-rule="evenodd" d="M70.2826 42.2727C69.2955 44.8403 68.7569 47.63 68.7628 50.5453C68.7885 63.2071 79.0737 73.4457 91.7354 73.4139L123.436 73.3344C128.898 73.3207 133.911 71.3975 137.843 68.1984C134.543 76.7822 126.229 82.8849 116.483 82.9094L84.7827 82.9889C72.1209 83.0207 61.8358 72.7821 61.8101 60.1203C61.7955 52.9213 65.1007 46.4888 70.2826 42.2727Z" fill="black" fill-opacity="0.5" style="mix-blend-mode:multiply"/>
<path fill-rule="evenodd" clip-rule="evenodd" d="M88.659 135.127C85.0611 139.861 79.3701 142.917 72.9653 142.917H64.0812C53.2016 142.917 44.3818 134.098 44.3818 123.218L44.3818 108.925C34.7644 108.822 27 100.993 27 91.3512V50.0211C27 40.3147 34.8686 32.4461 44.575 32.4461H46.5575C52.5319 13.6313 70.1313 0 90.9265 0C113.275 0 131.935 15.7447 136.437 36.7491C142.933 42.3457 147.069 50.6415 147.088 59.9102C147.096 63.8047 146.373 67.5487 145.043 70.9996C143.377 75.3179 140.768 79.1577 137.471 82.2706V100.428C137.471 105.25 135.888 109.709 133.222 113.304V123.604C133.222 134.484 124.403 143.304 113.523 143.304H104.639C98.0614 143.304 92.2369 140.08 88.659 135.127ZM125.497 110.434C128.117 107.905 129.746 104.357 129.746 100.428V78.6466C133.37 76.0568 136.208 72.4388 137.835 68.2201C138.827 65.6465 139.369 62.8494 139.363 59.9258C139.347 52.0737 135.385 45.1534 129.358 41.0366C126.683 22.2059 110.496 7.72526 90.9265 7.72526C71.6578 7.72526 55.6681 21.7641 52.6278 40.1713H44.575C39.1351 40.1713 34.7253 44.5812 34.7253 50.0211V91.3512C34.7253 96.791 39.1351 101.201 44.575 101.201H52.1071V123.218C52.1071 129.831 57.4681 135.192 64.0812 135.192H72.9653C79.5784 135.192 84.9394 129.831 84.9394 123.218V114.334H92.6647V123.604C92.6647 130.217 98.0257 135.578 104.639 135.578H113.523C120.136 135.578 125.497 130.217 125.497 123.604L125.497 110.434Z" fill="black"/>
<path fill-rule="evenodd" clip-rule="evenodd" d="M32.0818 133.635V137.188C32.0818 139.833 29.9378 141.977 27.293 141.977H23.7401C21.0954 141.977 18.9514 139.833 18.9514 137.188L18.9514 128.383H15.9391C13.7636 128.383 12 126.619 12 124.444V107.915C12 105.74 13.7636 103.976 15.9391 103.976H19.1596C20.3755 96.6145 26.7701 91 34.4761 91C42.3024 91 48.7761 96.7911 49.8458 104.322C52.2562 105.968 53.8405 108.736 53.8468 111.876C53.8492 113.045 53.6326 114.164 53.2357 115.193C52.5852 116.88 51.4501 118.327 50.0009 119.363V120.814V128.074C50.0009 129.645 49.3493 131.064 48.3016 132.075L48.3016 137.343C48.3016 139.987 46.1577 142.131 43.5129 142.131H39.96C37.3152 142.131 35.1713 139.987 35.1713 137.343V133.635H32.0818Z" fill="#E3E3E3"/>
<path fill-rule="evenodd" clip-rule="evenodd" d="M32.0818 133.635V137.188C32.0818 139.833 29.9378 141.977 27.293 141.977H23.7401C21.0954 141.977 18.9514 139.833 18.9514 137.188L18.9514 128.383H15.9391C13.7636 128.383 12 126.619 12 124.444V107.915C12 105.74 13.7636 103.976 15.9391 103.976H19.1596C20.3755 96.6145 26.7701 91 34.4761 91C42.3024 91 48.7761 96.7911 49.8458 104.322C52.2562 105.968 53.8405 108.736 53.8468 111.876C53.8492 113.045 53.6326 114.164 53.2357 115.193C52.5852 116.88 51.4501 118.327 50.0009 119.363V120.814V128.074C50.0009 129.645 49.3493 131.064 48.3016 132.075L48.3016 137.343C48.3016 139.987 46.1577 142.131 43.5129 142.131H39.96C37.3152 142.131 35.1713 139.987 35.1713 137.343V133.635H32.0818Z" fill="#E3E3E3"/>
<path fill-rule="evenodd" clip-rule="evenodd" d="M18.9514 106.525C18.9514 105.657 19.0226 104.805 19.1596 103.976H15.9391C13.7636 103.976 12 105.739 12 107.915V124.444C12 126.619 13.7636 128.383 15.9391 128.383H18.9514L18.9514 137.188C18.9514 139.833 21.0954 141.977 23.7401 141.977H27.293C29.9378 141.977 32.0818 139.833 32.0818 137.188V133.635H31.7728C27.4545 133.635 23.6349 131.5 21.3116 128.228C20.7374 127.42 20.2546 126.542 19.8782 125.609C19.2805 124.128 18.9514 122.509 18.9514 120.814V106.525ZM37.1794 133.635H35.1713V137.342C35.1713 139.987 37.3152 142.131 39.96 142.131H43.5129C46.1577 142.131 48.3016 139.987 48.3016 137.342L48.3016 132.075C49.3493 131.064 50.0009 129.645 50.0009 128.074V120.814C50.0009 123.645 49.0832 126.262 47.5292 128.383C45.1963 131.567 41.4294 133.635 37.1794 133.635Z" fill="black" fill-opacity="0.25" style="mix-blend-mode:multiply"/>
<path d="M21.6985 111.966C21.6875 105.413 25.951 100.088 31.2213 100.072L44.4162 100.032C49.6864 100.016 53.9678 105.315 53.9788 111.868C53.9898 118.421 49.7263 123.746 44.456 123.761L31.2611 123.801C25.9909 123.817 21.7095 118.518 21.6985 111.966Z" fill="#B4E2F5"/>
<path d="M31.9714 103.173C31.9697 102.343 32.5095 101.668 33.1772 101.667L42.6309 101.644C43.2986 101.643 43.8412 102.314 43.843 103.144C43.8448 103.974 43.305 104.649 42.6373 104.65L33.1835 104.673C32.5159 104.674 31.9732 104.003 31.9714 103.173Z" fill="white"/>
<path fill-rule="evenodd" clip-rule="evenodd" d="M25.4544 103C25.0519 104.324 24.8324 105.763 24.8348 107.267C24.8452 113.797 29.0387 119.078 34.2011 119.062L47.1259 119.02C49.3531 119.013 51.3969 118.022 53 116.372C51.6545 120.799 48.2649 123.946 44.2912 123.959L31.3663 124C26.2039 124.016 22.0105 118.736 22 112.205C21.9941 108.492 23.3416 105.175 25.4544 103Z" fill="black" fill-opacity="0.5" style="mix-blend-mode:multiply"/>
<path fill-rule="evenodd" clip-rule="evenodd" d="M35.1713 133.635H32.0818V137.188C32.0818 137.24 32.0809 137.291 32.0793 137.343C32.0055 139.672 30.268 141.582 28.0158 141.923C27.7801 141.958 27.5387 141.977 27.293 141.977H23.7401C21.0954 141.977 18.9514 139.833 18.9514 137.188V128.383H15.9391C13.7636 128.383 12 126.619 12 124.444V107.915C12 105.74 13.7636 103.976 15.9391 103.976H19.1596C20.3755 96.6145 26.7701 91 34.4761 91C41.2285 91 46.974 95.3109 49.1107 101.331C52.1857 103.293 54.2925 107.271 54.3002 111.865C54.3072 116.018 52.5966 119.679 50.0009 121.806V128.074C50.0009 129.645 49.3493 131.064 48.3016 132.075L48.3016 137.343C48.3016 139.987 46.1577 142.131 43.5129 142.131H39.96C39.674 142.131 39.394 142.106 39.1218 142.058C36.8767 141.662 35.1713 139.701 35.1713 137.343V133.635ZM33.4913 148.377C31.6552 149.396 29.5419 149.977 27.293 149.977H23.7401C16.6771 149.977 10.9514 144.251 10.9514 137.188V135.294C6.84832 133.405 4 129.257 4 124.444V107.915C4 102.228 7.97678 97.469 13.3014 96.2683C17.1119 88.4139 25.1568 83 34.4761 83C43.8106 83 51.8591 88.433 55.6616 96.2904C59.9639 100.13 62.2903 105.945 62.3002 111.851C62.3082 116.639 60.8069 121.315 58.0009 124.964V128.074C58.0009 130.457 57.3821 132.701 56.3016 134.648L56.3016 137.343C56.3016 144.406 50.5759 150.131 43.5129 150.131H39.96C37.5999 150.131 35.389 149.492 33.4913 148.377Z" fill="black"/>
</g>
<defs>
<filter id="filter0_d_235_54" x="0" y="0" width="151.088" height="158.131" filterUnits="userSpaceOnUse" color-interpolation-filters="sRGB">
<feFlood flood-opacity="0" result="BackgroundImageFix"/>
<feColorMatrix in="SourceAlpha" type="matrix" values="0 0 0 0 0 0 0 0 0 0 0 0 0 0 0 0 0 0 127 0" result="hardAlpha"/>
<feOffset dy="4"/>
<feGaussianBlur stdDeviation="2"/>
<feComposite in2="hardAlpha" operator="out"/>
<feColorMatrix type="matrix" values="0 0 0 0 0 0 0 0 0 0 0 0 0 0 0 0 0 0 0.25 0"/>
<feBlend mode="normal" in2="BackgroundImageFix" result="effect1_dropShadow_235_54"/>
<feBlend mode="normal" in="SourceGraphic" in2="effect1_dropShadow_235_54" result="shape"/>
</filter>
</defs>
</svg>
